<svg version="1.1" xmlns="http://www.w3.org/2000/svg" xmlns:xlink="http://www.w3.org/1999/xlink" width="50px" height="50px" viewBox="0,0,256,256"><g transform="translate(-16.64,-16.64) scale(1.13,1.13)"><g fill="none" fill-rule="nonzero" stroke="none" stroke-width="1" stroke-linecap="butt" stroke-linejoin="none" stroke-miterlimit="10" stroke-dasharray="" stroke-dashoffset="0" font-family="none" font-weight="none" font-size="none" text-anchor="none" style="mix-blend-mode: normal"><path transform="translate(-9.21536,2.04791) scale(5.12,5.12)" d="M42.70703,3.29297l5,5c0.24007,0.24011 0.34192,0.58561 0.27048,0.91754c-0.07144,0.33193 -0.30641,0.60495 -0.62399,0.72504c0,0 -0.67981,0.32389 -1.47852,0.74219c-0.3295,4.65187 -3.8534,8.17928 -7.30273,10.51953c-3.62485,2.45933 -7.23633,3.74414 -7.23633,3.74414c-0.32642,0.11678 -0.69003,0.05617 -0.96094,-0.16016l-3.42187,-2.73633c-0.07262,2.84367 -0.3166,6.5389 -1.30078,10.29297c-1.38944,5.29987 -4.29139,10.73169 -10.2207,13.56445c-0.41257,0.19717 -0.90631,0.08941 -1.19922,-0.26172c-1.41873,-1.70085 -4.01953,-5.02344 -4.01953,-5.02344c-0.19407,-0.24758 -0.26035,-0.57204 -0.17891,-0.8759c0.08144,-0.30386 0.3011,-0.55169 0.59297,-0.66902c0,0 5.26114,-2.09935 7.41406,-8.37305c0.68574,-2.44867 1.19997,-6.67463 1.51367,-10.24023c0.31459,-3.57579 0.44727,-6.50391 0.44727,-6.50391c0.02357,-0.51482 0.4345,-0.92744 0.94922,-0.95312c0.09987,-0.00513 0.19994,0.00474 0.29688,0.0293l7.82422,2c0.46509,0.11963 0.77949,0.55294 0.74894,1.03219c-0.03055,0.47925 -0.39743,0.86914 -0.87394,0.92874c0,0 -0.51197,0.07216 -1.01758,0.37305c-0.42516,0.25301 -0.77238,0.5772 -0.88086,1.24414c4.36837,-1.43503 7.78227,-2.97415 10.16602,-6.00195c-0.08202,-0.01366 -0.05791,-0.01734 -0.14453,-0.0293c-0.86415,-0.11927 -2.02576,-0.22746 -3.38281,-0.32031c-2.7141,-0.18571 -6.21729,-0.30728 -9.83203,-0.33789c-3.61474,-0.03061 -7.34364,0.0285 -10.51172,0.19922c-3.16808,0.17072 -5.82087,0.47685 -7.0625,0.83984c-0.27847,0.08166 -0.57867,0.03834 -0.82269,-0.11872c-0.24402,-0.15706 -0.40779,-0.41236 -0.4488,-0.69964l-1,-7.05859c-0.04076,-0.28723 0.04521,-0.57801 0.23561,-0.7969c0.1904,-0.21889 0.46647,-0.34431 0.75658,-0.34373l35.58398,0.05859l0.70703,-0.70703c0.18367,-0.18376 0.43163,-0.28883 0.69141,-0.29297c0.2706,-0.00414 0.53133,0.10156 0.72266,0.29297z" id="strokeMainSVG" fill="#00baff" stroke="#00baff" stroke-linejoin="round"></path><g transform="translate(-9.21536,2.04791) scale(5.12,5.12)" fill="#005085" stroke="none" stroke-linejoin="miter"><path d="M41.98438,3c-0.25977,0.00414 -0.50774,0.10921 -0.69141,0.29297l-0.70703,0.70703l-35.58398,-0.05859c-0.29011,-0.00058 -0.56618,0.12484 -0.75658,0.34373c-0.1904,0.21889 -0.27637,0.50967 -0.23561,0.7969l1,7.05859c0.04101,0.28728 0.20478,0.54258 0.4488,0.69964c0.24402,0.15706 0.54422,0.20038 0.82269,0.11872c1.24163,-0.36299 3.89442,-0.66913 7.0625,-0.83984c3.16808,-0.17072 6.89698,-0.22983 10.51172,-0.19922c3.61474,0.03061 7.11793,0.15218 9.83203,0.33789c1.35705,0.09285 2.51866,0.20104 3.38281,0.32031c0.08662,0.01196 0.06251,0.01564 0.14453,0.0293c-2.38374,3.0278 -5.79765,4.56692 -10.16602,6.00195c0.10848,-0.66694 0.4557,-0.99113 0.88086,-1.24414c0.50561,-0.30089 1.01758,-0.37305 1.01758,-0.37305c0.47651,-0.05961 0.84339,-0.44949 0.87394,-0.92874c0.03055,-0.47925 -0.28385,-0.91256 -0.74894,-1.03219l-7.82422,-2c-0.09694,-0.02455 -0.19701,-0.03443 -0.29687,-0.0293c-0.51472,0.02568 -0.92565,0.4383 -0.94922,0.95313c0,0 -0.13267,2.92812 -0.44727,6.50391c-0.3137,3.56561 -0.82793,7.79157 -1.51367,10.24023c-2.15293,6.27369 -7.41406,8.37305 -7.41406,8.37305c-0.29188,0.11734 -0.51154,0.36517 -0.59297,0.66902c-0.08144,0.30386 -0.01516,0.62832 0.17891,0.8759c0,0 2.6008,3.32259 4.01953,5.02344c0.2929,0.35113 0.78665,0.45889 1.19922,0.26172c5.92931,-2.83276 8.83126,-8.26458 10.2207,-13.56445c0.98418,-3.75407 1.22816,-7.4493 1.30078,-10.29297l3.42188,2.73633c0.2709,0.21633 0.63452,0.27693 0.96094,0.16016c0,0 3.61148,-1.28481 7.23633,-3.74414c3.44933,-2.34025 6.97324,-5.86766 7.30273,-10.51953c0.7987,-0.4183 1.47852,-0.74219 1.47852,-0.74219c0.31759,-0.12009 0.55255,-0.3931 0.62399,-0.72504c0.07144,-0.33193 -0.03041,-0.67744 -0.27048,-0.91754l-5,-5c-0.19132,-0.19141 -0.45205,-0.29711 -0.72266,-0.29297zM42,5.41406l3.31445,3.31445c-0.33402,0.16384 -0.27665,0.10648 -0.80078,0.39844c-0.31806,0.17705 -0.51481,0.51294 -0.51367,0.87695c0.01238,3.97095 -3.16863,7.24244 -6.55078,9.53711c-2.98539,2.02548 -5.62384,3.05534 -6.28711,3.30664l-3.10742,-2.48437c4.89357,-1.61222 9.13689,-3.4766 11.79883,-7.8418c0.14185,-0.23206 0.18308,-0.51189 0.11417,-0.775c-0.06891,-0.26311 -0.24201,-0.4868 -0.4794,-0.61954c-0.61888,-0.34692 -1.20564,-0.39971 -2.14453,-0.5293c-0.93889,-0.12959 -2.13353,-0.2411 -3.51953,-0.33594c-2.772,-0.18967 -6.30304,-0.31091 -9.95117,-0.3418c-3.64813,-0.03089 -7.40945,0.02922 -10.63672,0.20313c-2.73928,0.14761 -4.73742,0.42487 -6.38086,0.7793l-0.70312,-4.95898l34.8457,0.05664c0.26588,0.00047 0.52099,-0.10495 0.70898,-0.29297zM21.91406,15.26563l4.25977,1.08984c-0.62063,0.62355 -1.16613,1.43849 -1.17383,2.63867c-0.01813,2.80509 0.01986,7.86556 -1.2832,12.83594c-1.24215,4.73805 -3.71769,9.24645 -8.5,11.8418c-1.13081,-1.3892 -2.20786,-2.74797 -2.74805,-3.43555c1.45303,-0.72233 5.44234,-2.94609 7.47852,-8.91406c0.00566,-0.01679 0.01087,-0.03372 0.01563,-0.05078c0.7783,-2.76359 1.26533,-7.01476 1.58398,-10.63672c0.25963,-2.95102 0.32531,-4.53814 0.36719,-5.36914z"></path></g></g></g></svg>
