<!--<svg version="1.1" xmlns="http://www.w3.org/2000/svg" xmlns:xlink="http://www.w3.org/1999/xlink"-->
<!--     width="60px" height="60px" viewBox="0,0,256,256"><g-->
<!--        transform="translate(16.64,16.64) scale(0.87,0.87)"><g-->
<!--        fill="#000000" fill-rule="nonzero"-->

<!--stroke="none" stroke-width="1" stroke-linecap="butt" stroke-linejoin="miter"-->
<!--        stroke-miterlimit="10" stroke-dasharray="" stroke-dashoffset="0" font-family="none"-->
<!--        font-size="none"  style="mix-blend-mode: normal">-->
<!--    <path d="M-19.12644,275.12644v-294.25287h294.25287v294.25287z" id="bgRectangle"></path>-->
<!--</g><g fill="none" fill-rule="nonzero" stroke="#31afff" stroke-width="4.26667"-->
<!--       stroke-linecap="butt" stroke-linejoin="miter" stroke-miterlimit="10" stroke-dasharray="" stroke-dashoffset="0" font-family="none"  font-size="none" style="mix-blend-mode: normal"><path d="M63.99095,248.77179c-31.3492,0 -56.76274,-25.41355 -56.76274,-56.76274v-128.0181c0,-31.3492 25.41355,-56.76274 56.76274,-56.76274h128.0181c31.3492,0 56.76274,25.41355 56.76274,56.76274v128.0181c0,31.3492 -25.41355,56.76274 -56.76274,56.76274z" id="shape"></path></g><g fill="none" fill-rule="nonzero" stroke="none" stroke-width="none" stroke-linecap="butt"  stroke-miterlimit="10" stroke-dasharray="" stroke-dashoffset="0" font-family="none" font-size="none"  style="mix-blend-mode: normal"><path transform="translate(-8.48043,36.50299) rotate(-11) scale(4.26667,4.26667)" d="M40.78516,1.62891c0.501,0.065 1.045,0.412 1,1c-0.035,0.46 -0.16366,0.86442 -0.34766,1.23242c0.254,-0.055 0.50672,-0.11697 0.76172,-0.16797c1.103,-0.222 2.21312,-0.40278 3.32813,-0.55078c2.014,-0.267 4.04127,-0.41464 6.07227,-0.43164c1.525,-0.012 4.26834,-0.37584 4.65234,1.66016c0.18,0.952 -0.37381,1.80959 -0.88281,2.55859c-0.56,0.824 -1.12622,1.64303 -1.69922,2.45703c-0.847,1.2 -1.73038,2.37378 -2.60937,3.55078c0.624,0.076 1.23992,0.1953 1.79492,0.4043c1.158,0.437 1.51309,1.65136 0.87109,2.69336c-1.034,1.679 -3.06386,2.42847 -4.75586,3.23047c-2.058,0.974 -4.03266,2.11473 -5.97266,3.30273c-3.557,2.179 -7.36884,4.32174 -10.08984,7.55273c-0.805,3.093 -1.5607,6.20213 -2.2207,9.32813c1.02,-0.49 2.08881,-0.89634 3.13281,-1.27734c0.494,-0.181 1.03245,-0.34764 1.56445,-0.30664c0.737,0.057 1.33184,0.53339 1.46484,1.27539c0.28,1.562 -0.80748,3.00728 -1.89648,3.98828c-0.577,0.519 -1.20117,0.98145 -1.82617,1.43945c-0.262,0.192 -0.5252,0.38213 -0.7832,0.57813c-0.009,0.006 -0.00477,0.00381 -0.00977,0.00781c-0.021,0.017 -0.0415,0.03283 -0.0625,0.04883c-0.139,0.108 -0.27887,0.21631 -0.42187,0.32031c-0.181,0.132 -0.36578,0.25877 -0.55078,0.38477c-0.203,0.138 -0.40933,0.27406 -0.61133,0.41406c-0.093,0.064 -0.18334,0.13231 -0.27734,0.19531c-0.01,0.007 -0.01348,0.00767 -0.02148,0.01367c-0.136,0.12 -0.27802,0.23356 -0.41602,0.35156c-0.233,0.201 -0.48305,0.4652 -0.74805,0.6582c-0.306,2.042 -0.56291,4.09234 -0.75391,6.15234c0.608,0.479 0.40867,1.74759 -0.61133,1.80859c-4.102,0.244 -8.21302,0.11519 -12.29102,-0.38281c-0.496,-0.061 -1.052,-0.416 -1,-1c0.25,-2.789 0.74791,-5.54449 1.37891,-8.27148c1.113,-4.805 2.59819,-9.51675 3.61719,-14.34375c0.072,-0.341 0.13508,-0.6863 0.20508,-1.0293c-0.496,0.35 -1.00344,0.68495 -1.52344,1.00195c-0.908,0.553 -1.86469,1.11534 -2.92969,1.27734c-0.974,0.148 -2.04016,-0.05723 -2.78516,-0.74023c-0.829,-0.761 -1.02547,-1.89289 -0.85547,-2.96289c0.27,-1.701 1.42737,-3.06328 2.60938,-4.23828c0.755,-0.751 1.62139,-1.49609 2.27539,-2.37109c-1.122,0.245 -2.20073,0.86228 -3.17773,1.36328c-0.669,0.344 -1.39848,0.80355 -2.14648,0.93555c-0.852,0.151 -1.75145,-0.29042 -1.81445,-1.23242c-0.062,-0.935 0.80986,-1.6948 1.38086,-2.3418c0.582,-0.66 1.18836,-1.29711 1.81836,-1.91211c0.768,-0.75 1.57816,-1.45191 2.41016,-2.12891c-1.386,0.04 -2.7693,0.09106 -4.1543,0.16406c-0.618,0.033 -1.17684,-0.66962 -0.96484,-1.26562c1.183,-3.329 1.94547,-6.78659 2.23047,-10.30859c0.04,-0.495 0.432,-1.056 1,-1c3.678,0.363 7.37141,0.52673 11.06641,0.55273c2.735,0.019 5.46722,-0.04458 8.19922,-0.14258c0.076,-0.143 0.18056,-0.27686 0.35156,-0.38086c1.268,-0.777 2.57392,-1.49005 3.91992,-2.12305c1.12438,-0.5285 2.31327,-1.03731 3.56445,-1.0293c0.17874,0.00114 0.35977,0.01336 0.54102,0.03711z" id="strokeMainSVG" fill="#0d0037" stroke="#0d0037" stroke-width="5" stroke-linejoin="round"></path><g transform="translate(-8.48043,36.50299) rotate(-11) scale(4.26667,4.26667)" fill="#38e2ff" stroke="none" stroke-width="1" stroke-linejoin="miter"><path d="M40.24414,1.5918c-1.25118,-0.00801 -2.44008,0.5008 -3.56445,1.0293c-1.346,0.633 -2.65192,1.34605 -3.91992,2.12305c-0.171,0.104 -0.27556,0.23786 -0.35156,0.38086c-2.732,0.098 -5.46422,0.16158 -8.19922,0.14258c-3.695,-0.026 -7.38841,-0.18973 -11.06641,-0.55273c-0.568,-0.056 -0.96,0.505 -1,1c-0.285,3.522 -1.04747,6.97959 -2.23047,10.30859c-0.212,0.596 0.34684,1.29863 0.96484,1.26562c1.385,-0.073 2.7683,-0.12406 4.1543,-0.16406c-0.832,0.677 -1.64216,1.37891 -2.41016,2.12891c-0.63,0.615 -1.23636,1.25211 -1.81836,1.91211c-0.571,0.647 -1.44286,1.4068 -1.38086,2.3418c0.063,0.942 0.96245,1.38342 1.81445,1.23242c0.748,-0.132 1.47748,-0.59155 2.14648,-0.93555c0.977,-0.501 2.05574,-1.11828 3.17774,-1.36328c-0.654,0.875 -1.52039,1.62009 -2.27539,2.37109c-1.182,1.175 -2.33938,2.53728 -2.60937,4.23828c-0.17,1.07 0.02647,2.20189 0.85547,2.96289c0.745,0.683 1.81116,0.88823 2.78516,0.74023c1.065,-0.162 2.02169,-0.72434 2.92969,-1.27734c0.52,-0.317 1.02744,-0.65195 1.52344,-1.00195c-0.07,0.343 -0.13308,0.6883 -0.20508,1.0293c-1.019,4.827 -2.50419,9.53875 -3.61719,14.34375c-0.631,2.727 -1.12891,5.48248 -1.37891,8.27148c-0.052,0.584 0.504,0.939 1,1c4.078,0.498 8.18902,0.62681 12.29102,0.38281c1.02,-0.061 1.21933,-1.32959 0.61133,-1.80859c0.191,-2.06 0.44791,-4.11034 0.75391,-6.15234c0.265,-0.193 0.51505,-0.4572 0.74805,-0.6582c0.138,-0.118 0.28002,-0.23156 0.41602,-0.35156c0.008,-0.006 0.01148,-0.00667 0.02148,-0.01367c0.094,-0.063 0.18434,-0.13131 0.27734,-0.19531c0.202,-0.14 0.40833,-0.27606 0.61133,-0.41406c0.185,-0.126 0.36978,-0.25277 0.55078,-0.38477c0.143,-0.104 0.28287,-0.21231 0.42188,-0.32031c0.021,-0.016 0.0415,-0.03183 0.0625,-0.04883c0.005,-0.004 0.00077,-0.00181 0.00977,-0.00781c0.258,-0.196 0.5212,-0.38612 0.7832,-0.57812c0.625,-0.458 1.24917,-0.92045 1.82617,-1.43945c1.089,-0.981 2.17648,-2.42628 1.89648,-3.98828c-0.133,-0.742 -0.72784,-1.21839 -1.46484,-1.27539c-0.532,-0.041 -1.07045,0.12564 -1.56445,0.30664c-1.044,0.381 -2.11281,0.78734 -3.13281,1.27734c0.66,-3.126 1.4157,-6.23512 2.2207,-9.32812c2.721,-3.231 6.53284,-5.37373 10.08984,-7.55273c1.94,-1.188 3.91466,-2.32873 5.97266,-3.30273c1.692,-0.802 3.72186,-1.55147 4.75586,-3.23047c0.642,-1.042 0.28691,-2.25636 -0.87109,-2.69336c-0.555,-0.209 -1.17092,-0.3283 -1.79492,-0.4043c0.879,-1.177 1.76237,-2.35078 2.60938,-3.55078c0.573,-0.814 1.13922,-1.63303 1.69922,-2.45703c0.509,-0.749 1.06281,-1.60659 0.88281,-2.55859c-0.384,-2.036 -3.12734,-1.67216 -4.65234,-1.66016c-2.031,0.017 -4.05826,0.16464 -6.07227,0.43164c-1.115,0.148 -2.22512,0.32878 -3.32812,0.55078c-0.255,0.051 -0.50772,0.11297 -0.76172,0.16797c0.184,-0.368 0.31266,-0.77242 0.34766,-1.23242c0.045,-0.588 -0.499,-0.935 -1,-1c-0.18125,-0.02375 -0.36228,-0.03596 -0.54102,-0.03711zM47.05469,6.37109c0.301,0.002 0.97727,0.01206 1.07227,0.41406c0.054,0.229 -0.40019,0.90352 -0.49219,1.10352c-0.162,0.351 -0.3158,0.70455 -0.4668,1.06055c-0.314,0.742 -0.60809,1.49191 -0.87109,2.25391c-0.44,1.276 -0.78045,2.58239 -1.06445,3.90039c-3.301,-0.022 -6.6033,-0.04441 -9.9043,-0.06641c-0.935,-0.006 -1.18277,1.04109 -0.75977,1.62109c-2.738,9.51 -5.45673,19.05689 -7.05273,28.83789c-0.436,2.673 -0.77925,5.36259 -1.03125,8.05859c-3.277,0.128 -6.55441,0.02078 -9.81641,-0.32422c0.504,-4.541 1.69886,-8.971 2.88086,-13.375c0.633,-2.359 1.26502,-4.71947 1.79102,-7.10547c0.549,-2.492 0.97697,-5.00848 1.41797,-7.52148c0.474,-2.705 0.94788,-5.41023 1.42188,-8.11523c0.395,0.01 0.79055,0.01339 1.18555,0.02539c1.287,0.041 1.286,-1.959 0,-2c-4.368,-0.139 -8.73752,-0.10225 -13.10352,0.09375c0.874,-2.751 1.45777,-5.57822 1.75976,-8.44922c5.763,0.518 11.55494,0.57167 17.33594,0.38867c3.002,-0.095 6.00295,-0.24797 9.00195,-0.41797c1.52,-0.086 3.03959,-0.17853 4.55859,-0.26953c0.709,-0.042 1.42572,-0.11828 2.13672,-0.11328zM42.6875,8.29102c-2.151,0.008 -4.30217,0.05925 -6.45117,0.15625c-0.522,0.023 -1.025,0.443 -1,1c0.023,0.522 0.44,1.026 1,1c2.149,-0.097 4.30017,-0.14925 6.45117,-0.15625c0.523,-0.002 1.024,-0.458 1,-1c-0.024,-0.54 -0.439,-1.002 -1,-1z"></path></g></g></g></svg>-->
<!--<svg version="1.1" xmlns="http://www.w3.org/2000/svg" xmlns:xlink="http://www.w3.org/1999/xlink" width="50px" height="50px" viewBox="0,0,256,256"><g transform="translate(-23.04,-23.04) scale(1.18,1.18)"><g fill="none" fill-rule="nonzero" stroke="none" stroke-width="none" stroke-linecap="butt" stroke-linejoin="none" stroke-miterlimit="10" stroke-dasharray="" stroke-dashoffset="0" font-family="none" font-weight="none" font-size="none" text-anchor="none" style="mix-blend-mode: normal"><path transform="translate(-4.096,7.168) scale(5.12,5.12)" d="M47,8c0,0 -0.641,0.243 -2,1c0.028,8.984 -14,14 -14,14l-5,-4c5.631,-1.762 10.215,-3.433 13,-8c-2.13,-1.194 -27.233,-1.686 -33,0l-1,-7.05859l36,0.05859l1,-1zM28.82422,15c0,0 -2.80722,0.351 -2.82422,3c-0.036,5.571 0.194,20.652 -11,26c-1.393,-1.67 -4,-5 -4,-5c0,0 5.711,-2.291 8,-9c1.467,-5.209 2,-17 2,-17z" id="strokeMainSVG" fill="#00298a" stroke="#00298a" stroke-width="4" stroke-linejoin="round"></path><g transform="translate(-4.096,7.168) scale(5.12,5.12)" fill="#06a1e2" stroke="none" stroke-width="1" stroke-linejoin="miter"><path d="M42,3l-1,1l-36,-0.05859l1,7.05859c5.767,-1.686 30.87,-1.194 33,0c-2.785,4.567 -7.369,6.238 -13,8l5,4c0,0 14.028,-5.016 14,-14c1.359,-0.757 2,-1 2,-1zM21,13c0,0 -0.533,11.791 -2,17c-2.289,6.709 -8,9 -8,9c0,0 2.607,3.33 4,5c11.194,-5.348 10.964,-20.429 11,-26c0.017,-2.649 2.82422,-3 2.82422,-3z"></path></g></g></g></svg>-->
<!--<svg version="1.1" xmlns="http://www.w3.org/2000/svg" xmlns:xlink="http://www.w3.org/1999/xlink" width="50px" height="50px" viewBox="0,0,256,256"><g transform="translate(-16.64,-16.64) scale(1.13,1.13)"><g fill="none" fill-rule="nonzero" stroke="none" stroke-width="none" stroke-linecap="butt" stroke-linejoin="none" stroke-miterlimit="10" stroke-dasharray="" stroke-dashoffset="0" font-family="none" font-weight="none" font-size="none" text-anchor="none" style="mix-blend-mode: normal"><path transform="translate(-9.21536,2.04791) scale(5.12,5.12) skewX(0)" d="M42.70703,3.29297l5,5c0.24007,0.24011 0.34192,0.58561 0.27048,0.91754c-0.07144,0.33193 -0.30641,0.60495 -0.62399,0.72504c0,0 -0.67981,0.32389 -1.47852,0.74219c-0.3295,4.65187 -3.8534,8.17928 -7.30273,10.51953c-3.62485,2.45933 -7.23633,3.74414 -7.23633,3.74414c-0.32642,0.11678 -0.69003,0.05617 -0.96094,-0.16016l-3.42187,-2.73633c-0.07262,2.84367 -0.3166,6.5389 -1.30078,10.29297c-1.38944,5.29987 -4.29139,10.73169 -10.2207,13.56445c-0.41257,0.19717 -0.90631,0.08941 -1.19922,-0.26172c-1.41873,-1.70085 -4.01953,-5.02344 -4.01953,-5.02344c-0.19407,-0.24758 -0.26035,-0.57204 -0.17891,-0.8759c0.08144,-0.30386 0.3011,-0.55169 0.59297,-0.66902c0,0 5.26114,-2.09935 7.41406,-8.37305c0.68574,-2.44867 1.19997,-6.67463 1.51367,-10.24023c0.31459,-3.57579 0.44727,-6.50391 0.44727,-6.50391c0.02357,-0.51482 0.4345,-0.92744 0.94922,-0.95312c0.09987,-0.00513 0.19994,0.00474 0.29688,0.0293l7.82422,2c0.46509,0.11963 0.77949,0.55294 0.74894,1.03219c-0.03055,0.47925 -0.39743,0.86914 -0.87394,0.92874c0,0 -0.51197,0.07216 -1.01758,0.37305c-0.42516,0.25301 -0.77238,0.5772 -0.88086,1.24414c4.36837,-1.43503 7.78227,-2.97415 10.16602,-6.00195c-0.08202,-0.01366 -0.05791,-0.01734 -0.14453,-0.0293c-0.86415,-0.11927 -2.02576,-0.22746 -3.38281,-0.32031c-2.7141,-0.18571 -6.21729,-0.30728 -9.83203,-0.33789c-3.61474,-0.03061 -7.34364,0.0285 -10.51172,0.19922c-3.16808,0.17072 -5.82087,0.47685 -7.0625,0.83984c-0.27847,0.08166 -0.57867,0.03834 -0.82269,-0.11872c-0.24402,-0.15706 -0.40779,-0.41236 -0.4488,-0.69964l-1,-7.05859c-0.04076,-0.28723 0.04521,-0.57801 0.23561,-0.7969c0.1904,-0.21889 0.46647,-0.34431 0.75658,-0.34373l35.58398,0.05859l0.70703,-0.70703c0.18367,-0.18376 0.43163,-0.28883 0.69141,-0.29297c0.2706,-0.00414 0.53133,0.10156 0.72266,0.29297z" id="strokeMainSVG" fill="#00baff" stroke="#00baff" stroke-width="2" stroke-linejoin="round"></path><g transform="translate(-9.21536,2.04791) scale(5.12,5.12)" fill="#000000" stroke="none" stroke-width="1" stroke-linejoin="miter"><path d="M41.98438,3c-0.25977,0.00414 -0.50774,0.10921 -0.69141,0.29297l-0.70703,0.70703l-35.58398,-0.05859c-0.29011,-0.00058 -0.56618,0.12484 -0.75658,0.34373c-0.1904,0.21889 -0.27637,0.50967 -0.23561,0.7969l1,7.05859c0.04101,0.28728 0.20478,0.54258 0.4488,0.69964c0.24402,0.15706 0.54422,0.20038 0.82269,0.11872c1.24163,-0.36299 3.89442,-0.66913 7.0625,-0.83984c3.16808,-0.17072 6.89698,-0.22983 10.51172,-0.19922c3.61474,0.03061 7.11793,0.15218 9.83203,0.33789c1.35705,0.09285 2.51866,0.20104 3.38281,0.32031c0.08662,0.01196 0.06251,0.01564 0.14453,0.0293c-2.38374,3.0278 -5.79765,4.56692 -10.16602,6.00195c0.10848,-0.66694 0.4557,-0.99113 0.88086,-1.24414c0.50561,-0.30089 1.01758,-0.37305 1.01758,-0.37305c0.47651,-0.05961 0.84339,-0.44949 0.87394,-0.92874c0.03055,-0.47925 -0.28385,-0.91256 -0.74894,-1.03219l-7.82422,-2c-0.09694,-0.02455 -0.19701,-0.03443 -0.29687,-0.0293c-0.51472,0.02568 -0.92565,0.4383 -0.94922,0.95313c0,0 -0.13267,2.92812 -0.44727,6.50391c-0.3137,3.56561 -0.82793,7.79157 -1.51367,10.24023c-2.15293,6.27369 -7.41406,8.37305 -7.41406,8.37305c-0.29188,0.11734 -0.51154,0.36517 -0.59297,0.66902c-0.08144,0.30386 -0.01516,0.62832 0.17891,0.8759c0,0 2.6008,3.32259 4.01953,5.02344c0.2929,0.35113 0.78665,0.45889 1.19922,0.26172c5.92931,-2.83276 8.83126,-8.26458 10.2207,-13.56445c0.98418,-3.75407 1.22816,-7.4493 1.30078,-10.29297l3.42188,2.73633c0.2709,0.21633 0.63452,0.27693 0.96094,0.16016c0,0 3.61148,-1.28481 7.23633,-3.74414c3.44933,-2.34025 6.97324,-5.86766 7.30273,-10.51953c0.7987,-0.4183 1.47852,-0.74219 1.47852,-0.74219c0.31759,-0.12009 0.55255,-0.3931 0.62399,-0.72504c0.07144,-0.33193 -0.03041,-0.67744 -0.27048,-0.91754l-5,-5c-0.19132,-0.19141 -0.45205,-0.29711 -0.72266,-0.29297zM42,5.41406l3.31445,3.31445c-0.33402,0.16384 -0.27665,0.10648 -0.80078,0.39844c-0.31806,0.17705 -0.51481,0.51294 -0.51367,0.87695c0.01238,3.97095 -3.16863,7.24244 -6.55078,9.53711c-2.98539,2.02548 -5.62384,3.05534 -6.28711,3.30664l-3.10742,-2.48437c4.89357,-1.61222 9.13689,-3.4766 11.79883,-7.8418c0.14185,-0.23206 0.18308,-0.51189 0.11417,-0.775c-0.06891,-0.26311 -0.24201,-0.4868 -0.4794,-0.61954c-0.61888,-0.34692 -1.20564,-0.39971 -2.14453,-0.5293c-0.93889,-0.12959 -2.13353,-0.2411 -3.51953,-0.33594c-2.772,-0.18967 -6.30304,-0.31091 -9.95117,-0.3418c-3.64813,-0.03089 -7.40945,0.02922 -10.63672,0.20313c-2.73928,0.14761 -4.73742,0.42487 -6.38086,0.7793l-0.70312,-4.95898l34.8457,0.05664c0.26588,0.00047 0.52099,-0.10495 0.70898,-0.29297zM21.91406,15.26563l4.25977,1.08984c-0.62063,0.62355 -1.16613,1.43849 -1.17383,2.63867c-0.01813,2.80509 0.01986,7.86556 -1.2832,12.83594c-1.24215,4.73805 -3.71769,9.24645 -8.5,11.8418c-1.13081,-1.3892 -2.20786,-2.74797 -2.74805,-3.43555c1.45303,-0.72233 5.44234,-2.94609 7.47852,-8.91406c0.00566,-0.01679 0.01087,-0.03372 0.01563,-0.05078c0.7783,-2.76359 1.26533,-7.01476 1.58398,-10.63672c0.25963,-2.95102 0.32531,-4.53814 0.36719,-5.36914z"></path></g></g></g></svg>-->
<svg version="1.1" xmlns="http://www.w3.org/2000/svg" xmlns:xlink="http://www.w3.org/1999/xlink" width="50px" height="50px" viewBox="0,0,256,256"><g transform="translate(-16.64,-16.64) scale(1.13,1.13)"><g fill="none" fill-rule="nonzero" stroke="none" stroke-width="1" stroke-linecap="butt" stroke-linejoin="none" stroke-miterlimit="10" stroke-dasharray="" stroke-dashoffset="0" font-family="none" font-weight="none" font-size="none" text-anchor="none" style="mix-blend-mode: normal"><path transform="translate(-9.21536,2.04791) scale(5.12,5.12)" d="M42.70703,3.29297l5,5c0.24007,0.24011 0.34192,0.58561 0.27048,0.91754c-0.07144,0.33193 -0.30641,0.60495 -0.62399,0.72504c0,0 -0.67981,0.32389 -1.47852,0.74219c-0.3295,4.65187 -3.8534,8.17928 -7.30273,10.51953c-3.62485,2.45933 -7.23633,3.74414 -7.23633,3.74414c-0.32642,0.11678 -0.69003,0.05617 -0.96094,-0.16016l-3.42187,-2.73633c-0.07262,2.84367 -0.3166,6.5389 -1.30078,10.29297c-1.38944,5.29987 -4.29139,10.73169 -10.2207,13.56445c-0.41257,0.19717 -0.90631,0.08941 -1.19922,-0.26172c-1.41873,-1.70085 -4.01953,-5.02344 -4.01953,-5.02344c-0.19407,-0.24758 -0.26035,-0.57204 -0.17891,-0.8759c0.08144,-0.30386 0.3011,-0.55169 0.59297,-0.66902c0,0 5.26114,-2.09935 7.41406,-8.37305c0.68574,-2.44867 1.19997,-6.67463 1.51367,-10.24023c0.31459,-3.57579 0.44727,-6.50391 0.44727,-6.50391c0.02357,-0.51482 0.4345,-0.92744 0.94922,-0.95312c0.09987,-0.00513 0.19994,0.00474 0.29688,0.0293l7.82422,2c0.46509,0.11963 0.77949,0.55294 0.74894,1.03219c-0.03055,0.47925 -0.39743,0.86914 -0.87394,0.92874c0,0 -0.51197,0.07216 -1.01758,0.37305c-0.42516,0.25301 -0.77238,0.5772 -0.88086,1.24414c4.36837,-1.43503 7.78227,-2.97415 10.16602,-6.00195c-0.08202,-0.01366 -0.05791,-0.01734 -0.14453,-0.0293c-0.86415,-0.11927 -2.02576,-0.22746 -3.38281,-0.32031c-2.7141,-0.18571 -6.21729,-0.30728 -9.83203,-0.33789c-3.61474,-0.03061 -7.34364,0.0285 -10.51172,0.19922c-3.16808,0.17072 -5.82087,0.47685 -7.0625,0.83984c-0.27847,0.08166 -0.57867,0.03834 -0.82269,-0.11872c-0.24402,-0.15706 -0.40779,-0.41236 -0.4488,-0.69964l-1,-7.05859c-0.04076,-0.28723 0.04521,-0.57801 0.23561,-0.7969c0.1904,-0.21889 0.46647,-0.34431 0.75658,-0.34373l35.58398,0.05859l0.70703,-0.70703c0.18367,-0.18376 0.43163,-0.28883 0.69141,-0.29297c0.2706,-0.00414 0.53133,0.10156 0.72266,0.29297z" id="strokeMainSVG" fill="#00baff" stroke="#00baff" stroke-linejoin="round"></path><g transform="translate(-9.21536,2.04791) scale(5.12,5.12)" fill="#005085" stroke="none" stroke-linejoin="miter"><path d="M41.98438,3c-0.25977,0.00414 -0.50774,0.10921 -0.69141,0.29297l-0.70703,0.70703l-35.58398,-0.05859c-0.29011,-0.00058 -0.56618,0.12484 -0.75658,0.34373c-0.1904,0.21889 -0.27637,0.50967 -0.23561,0.7969l1,7.05859c0.04101,0.28728 0.20478,0.54258 0.4488,0.69964c0.24402,0.15706 0.54422,0.20038 0.82269,0.11872c1.24163,-0.36299 3.89442,-0.66913 7.0625,-0.83984c3.16808,-0.17072 6.89698,-0.22983 10.51172,-0.19922c3.61474,0.03061 7.11793,0.15218 9.83203,0.33789c1.35705,0.09285 2.51866,0.20104 3.38281,0.32031c0.08662,0.01196 0.06251,0.01564 0.14453,0.0293c-2.38374,3.0278 -5.79765,4.56692 -10.16602,6.00195c0.10848,-0.66694 0.4557,-0.99113 0.88086,-1.24414c0.50561,-0.30089 1.01758,-0.37305 1.01758,-0.37305c0.47651,-0.05961 0.84339,-0.44949 0.87394,-0.92874c0.03055,-0.47925 -0.28385,-0.91256 -0.74894,-1.03219l-7.82422,-2c-0.09694,-0.02455 -0.19701,-0.03443 -0.29687,-0.0293c-0.51472,0.02568 -0.92565,0.4383 -0.94922,0.95313c0,0 -0.13267,2.92812 -0.44727,6.50391c-0.3137,3.56561 -0.82793,7.79157 -1.51367,10.24023c-2.15293,6.27369 -7.41406,8.37305 -7.41406,8.37305c-0.29188,0.11734 -0.51154,0.36517 -0.59297,0.66902c-0.08144,0.30386 -0.01516,0.62832 0.17891,0.8759c0,0 2.6008,3.32259 4.01953,5.02344c0.2929,0.35113 0.78665,0.45889 1.19922,0.26172c5.92931,-2.83276 8.83126,-8.26458 10.2207,-13.56445c0.98418,-3.75407 1.22816,-7.4493 1.30078,-10.29297l3.42188,2.73633c0.2709,0.21633 0.63452,0.27693 0.96094,0.16016c0,0 3.61148,-1.28481 7.23633,-3.74414c3.44933,-2.34025 6.97324,-5.86766 7.30273,-10.51953c0.7987,-0.4183 1.47852,-0.74219 1.47852,-0.74219c0.31759,-0.12009 0.55255,-0.3931 0.62399,-0.72504c0.07144,-0.33193 -0.03041,-0.67744 -0.27048,-0.91754l-5,-5c-0.19132,-0.19141 -0.45205,-0.29711 -0.72266,-0.29297zM42,5.41406l3.31445,3.31445c-0.33402,0.16384 -0.27665,0.10648 -0.80078,0.39844c-0.31806,0.17705 -0.51481,0.51294 -0.51367,0.87695c0.01238,3.97095 -3.16863,7.24244 -6.55078,9.53711c-2.98539,2.02548 -5.62384,3.05534 -6.28711,3.30664l-3.10742,-2.48437c4.89357,-1.61222 9.13689,-3.4766 11.79883,-7.8418c0.14185,-0.23206 0.18308,-0.51189 0.11417,-0.775c-0.06891,-0.26311 -0.24201,-0.4868 -0.4794,-0.61954c-0.61888,-0.34692 -1.20564,-0.39971 -2.14453,-0.5293c-0.93889,-0.12959 -2.13353,-0.2411 -3.51953,-0.33594c-2.772,-0.18967 -6.30304,-0.31091 -9.95117,-0.3418c-3.64813,-0.03089 -7.40945,0.02922 -10.63672,0.20313c-2.73928,0.14761 -4.73742,0.42487 -6.38086,0.7793l-0.70312,-4.95898l34.8457,0.05664c0.26588,0.00047 0.52099,-0.10495 0.70898,-0.29297zM21.91406,15.26563l4.25977,1.08984c-0.62063,0.62355 -1.16613,1.43849 -1.17383,2.63867c-0.01813,2.80509 0.01986,7.86556 -1.2832,12.83594c-1.24215,4.73805 -3.71769,9.24645 -8.5,11.8418c-1.13081,-1.3892 -2.20786,-2.74797 -2.74805,-3.43555c1.45303,-0.72233 5.44234,-2.94609 7.47852,-8.91406c0.00566,-0.01679 0.01087,-0.03372 0.01563,-0.05078c0.7783,-2.76359 1.26533,-7.01476 1.58398,-10.63672c0.25963,-2.95102 0.32531,-4.53814 0.36719,-5.36914z"></path></g></g></g></svg>
